<svg width="28" height="29" viewBox="0 0 28 29" fill="none" xmlns="http://www.w3.org/2000/svg">
<path d="M20.5998 20.2541L15.6497 25.2042C15.4332 25.4209 15.1761 25.5928 14.8931 25.7101C14.6102 25.8274 14.3069 25.8878 14.0006 25.8878C13.6943 25.8878 13.391 25.8274 13.108 25.7101C12.825 25.5928 12.568 25.4209 12.3515 25.2042L7.40016 20.2541C6.09492 18.9488 5.20605 17.2857 4.84596 15.4752C4.48587 13.6648 4.67073 11.7882 5.37716 10.0828C6.0836 8.37734 7.27987 6.9197 8.81472 5.89416C10.3496 4.86862 12.1541 4.32124 14 4.32124C15.8459 4.32124 17.6504 4.86862 19.1853 5.89416C20.7201 6.9197 21.9164 8.37734 22.6228 10.0828C23.3293 11.7882 23.5141 13.6648 23.154 15.4752C22.7939 17.2857 21.9051 18.9488 20.5998 20.2541V20.2541Z" stroke="black" stroke-width="2.5" stroke-linecap="round" stroke-linejoin="round"/>
<path d="M17.5 13.6543C17.5 14.5825 17.1313 15.4727 16.4749 16.1291C15.8185 16.7855 14.9283 17.1543 14 17.1543C13.0717 17.1543 12.1815 16.7855 11.5251 16.1291C10.8687 15.4727 10.5 14.5825 10.5 13.6543C10.5 12.726 10.8687 11.8358 11.5251 11.1794C12.1815 10.523 13.0717 10.1543 14 10.1543C14.9283 10.1543 15.8185 10.523 16.4749 11.1794C17.1313 11.8358 17.5 12.726 17.5 13.6543V13.6543Z" stroke="black" stroke-width="2.5" stroke-linecap="round" stroke-linejoin="round"/>
</svg>
