<svg width="28" height="29" viewBox="0 0 28 29" fill="none" xmlns="http://www.w3.org/2000/svg">
<path d="M4.66666 6.65425C4.66666 6.34483 4.78957 6.04808 5.00837 5.82929C5.22716 5.6105 5.5239 5.48758 5.83332 5.48758H22.1667C22.4761 5.48758 22.7728 5.6105 22.9916 5.82929C23.2104 6.04808 23.3333 6.34483 23.3333 6.65425V8.98758C23.3333 9.297 23.2104 9.59374 22.9916 9.81254C22.7728 10.0313 22.4761 10.1542 22.1667 10.1542H5.83332C5.5239 10.1542 5.22716 10.0313 5.00837 9.81254C4.78957 9.59374 4.66666 9.297 4.66666 8.98758V6.65425ZM4.66666 15.9876C4.66666 15.6782 4.78957 15.3814 5.00837 15.1626C5.22716 14.9438 5.5239 14.8209 5.83332 14.8209H12.8333C13.1427 14.8209 13.4395 14.9438 13.6583 15.1626C13.8771 15.3814 14 15.6782 14 15.9876V22.9876C14 23.297 13.8771 23.5937 13.6583 23.8125C13.4395 24.0313 13.1427 24.1542 12.8333 24.1542H5.83332C5.5239 24.1542 5.22716 24.0313 5.00837 23.8125C4.78957 23.5937 4.66666 23.297 4.66666 22.9876V15.9876ZM18.6667 15.9876C18.6667 15.6782 18.7896 15.3814 19.0084 15.1626C19.2272 14.9438 19.5239 14.8209 19.8333 14.8209H22.1667C22.4761 14.8209 22.7728 14.9438 22.9916 15.1626C23.2104 15.3814 23.3333 15.6782 23.3333 15.9876V22.9876C23.3333 23.297 23.2104 23.5937 22.9916 23.8125C22.7728 24.0313 22.4761 24.1542 22.1667 24.1542H19.8333C19.5239 24.1542 19.2272 24.0313 19.0084 23.8125C18.7896 23.5937 18.6667 23.297 18.6667 22.9876V15.9876Z" stroke="black" stroke-width="2.5" stroke-linecap="round" stroke-linejoin="round"/>
</svg>
