<svg width="26" height="26" viewBox="0 0 26 26" fill="none" xmlns="http://www.w3.org/2000/svg">
<path d="M12.7742 9.41626V12.555V9.41626ZM12.7742 12.555V15.6938V12.555ZM12.7742 12.555H15.9129H12.7742ZM12.7742 12.555H9.63548H12.7742ZM22.1903 12.555C22.1903 13.7916 21.9468 15.016 21.4736 16.1585C21.0004 17.3009 20.3068 18.3389 19.4324 19.2133C18.558 20.0877 17.52 20.7813 16.3776 21.2545C15.2352 21.7277 14.0107 21.9713 12.7742 21.9713C11.5376 21.9713 10.3132 21.7277 9.1708 21.2545C8.02838 20.7813 6.99035 20.0877 6.11598 19.2133C5.24161 18.3389 4.54803 17.3009 4.07482 16.1585C3.60162 15.016 3.35806 13.7916 3.35806 12.555C3.35806 10.0577 4.35012 7.66261 6.11598 5.89672C7.88185 4.13083 10.2769 3.13876 12.7742 3.13876C15.2715 3.13876 17.6665 4.13083 19.4324 5.89672C21.1983 7.66261 22.1903 10.0577 22.1903 12.555Z" stroke="white" stroke-width="2.5" stroke-linecap="round" stroke-linejoin="round"/>
</svg>
