<svg width="28" height="29" viewBox="0 0 28 29" fill="none" xmlns="http://www.w3.org/2000/svg">
<path d="M22.1667 13.6543H5.83333M22.1667 13.6543C22.7855 13.6543 23.379 13.9001 23.8166 14.3377C24.2542 14.7753 24.5 15.3688 24.5 15.9876V22.9876C24.5 23.6064 24.2542 24.1999 23.8166 24.6375C23.379 25.0751 22.7855 25.3209 22.1667 25.3209H5.83333C5.21449 25.3209 4.621 25.0751 4.18342 24.6375C3.74583 24.1999 3.5 23.6064 3.5 22.9876V15.9876C3.5 15.3688 3.74583 14.7753 4.18342 14.3377C4.621 13.9001 5.21449 13.6543 5.83333 13.6543M22.1667 13.6543V11.3209C22.1667 10.7021 21.9208 10.1086 21.4832 9.67101C21.0457 9.23342 20.4522 8.98759 19.8333 8.98759M5.83333 13.6543V11.3209C5.83333 10.7021 6.07917 10.1086 6.51675 9.67101C6.95434 9.23342 7.54783 8.98759 8.16667 8.98759M19.8333 8.98759V6.65426C19.8333 6.03542 19.5875 5.44193 19.1499 5.00434C18.7123 4.56676 18.1188 4.32092 17.5 4.32092H10.5C9.88116 4.32092 9.28767 4.56676 8.85008 5.00434C8.4125 5.44193 8.16667 6.03542 8.16667 6.65426V8.98759M19.8333 8.98759H8.16667" stroke="black" stroke-width="2.5" stroke-linecap="round" stroke-linejoin="round"/>
</svg>
